{"title":"Barbarossa.2009.x264.AC3(5.1).Nordic.mkv-Zen_Bud ","uid":5843139,"size":2263194328,"categoryP":"video","categoryS":"movies","magnet":"?xt=urn:btih:62395140854499ab5b46e8ea25d5f6a3309eff0e&amp;dn=Barbarossa.2009.x264.AC3%285.1%29.Nordic.mkv-Zen_Bud+&amp;tr=udp%3A%2F%2Ftracker.openbittorrent.com%3A80&amp;tr=udp%3A%2F%2Fopen.demonii.com%3A1337&amp;tr=udp%3A%2F%2Ftracker.coppersurfer.tk%3A6969&amp;tr=udp%3A%2F%2Fexodus.desync.com%3A6969","seeders":0,"leechers":0,"uploader":"Zen_Bud","files":-1,"time":1285051732,"description":"\n***** Barbarossa.2009.x264.AC3(5.1).Nordic.mkv-Zen_Bud *****\n\nFormat                           : Matroska\nFile size                        : 2.11 GiB\nDuration                         : 2h 3mn\nOverall bit rate                 : 2 438 Kbps\nWriting application              : HandBrake svn3534\nWriting library                  : libmkv 0.6.4.1\n\nVideo\n\nFormat                           : AVC\nDuration                         : 2h 3mn\nBit rate                         : 1 942 Kbps\nWidth                            : 700 pixels\nHeight                           : 436 pixels\nDisplay aspect ratio             : 2.25:1\nStream size                      : 1.68 GiB (80%)\nWriting library                  : x264 core 104\n\n\nFormat                           : AC-3\nDuration                         : 2h 3mn\nBit rate                         : 448 Kbps\nChannel(s)                       : 6 channels\nChannel positions                : Front: L C R, Side: L R, LFE\nSampling rate                    : 48.0 KHz\nBit depth                        : 16 bits\nStream size                      : 397 MiB (18%)\nLanguage                         : English\n\nText #1\nLanguage                         : Norwegian\n\nText #2\nLanguage                         : Danish\n\nText #3\nLanguage                         : Finnish\n\nText #4\nLanguage                         : Swedish\n\nMenu\n00:00:00.000                     : Chapter  1\n00:10:00.880                     : Chapter  2\n\n\n","torrent":{"xt":"urn:btih:62395140854499ab5b46e8ea25d5f6a3309eff0e","amp;dn":"Barbarossa.2009.x264.AC3%285.1%29.Nordic.mkv-Zen_Bud+","amp;tr":["udp%3A%2F%2Ftracker.openbittorrent.com%3A80","udp%3A%2F%2Fopen.demonii.com%3A1337","udp%3A%2F%2Ftracker.coppersurfer.tk%3A6969","udp%3A%2F%2Fexodus.desync.com%3A6969"],"infoHash":"62395140854499ab5b46e8ea25d5f6a3309eff0e","infoHashBuffer":{"type":"Buffer","data":[98,57,81,64,133,68,153,171,91,70,232,234,37,213,246,163,48,158,255,14]},"announce":[],"urlList":[]}}